<!--
    Made by: ImMamey@
-->

<svg width="100%" height="40px" xmlns="http://www.w3.org/2000/svg" style="background-color: #0a0210;">
    <defs>
        <!-- Background gradient for the SVG -->
        <linearGradient id="synthwave-divider-bg-perspective" x1="0%" y1="0%" x2="0%" y2="100%">
            <stop offset="0%" stop-color="#100518" />
            <stop offset="30%" stop-color="#1c0828" />
            <stop offset="100%" stop-color="#280b3a" />
        </linearGradient>

        <!-- Diagonal grid pattern (far layer 1) -->
        <pattern id="diag-grid-far-1" width="60" height="7.5" patternUnits="userSpaceOnUse" viewBox="0 0 60 7.5">
            <line x1="-10" y1="0" x2="20" y2="7.5" stroke="#FF00FF" stroke-width="0.3" opacity="0.3"/>
            <line x1="15" y1="0" x2="45" y2="7.5" stroke="#FF00FF" stroke-width="0.3" opacity="0.3"/>
            <line x1="40" y1="0" x2="70" y2="7.5" stroke="#FF00FF" stroke-width="0.3" opacity="0.3"/>
            <line x1="20" y1="0" x2="-10" y2="7.5" stroke="#FF00FF" stroke-width="0.3" opacity="0.3"/>
            <line x1="45" y1="0" x2="15" y2="7.5" stroke="#FF00FF" stroke-width="0.3" opacity="0.3"/>
            <line x1="70" y1="0" x2="40" y2="7.5" stroke="#FF00FF" stroke-width="0.3" opacity="0.3"/>
            <!-- Animation to move the grid horizontally -->
            <animateTransform attributeName="patternTransform" type="translate" values="0 0; -60 0" dur="6s" repeatCount="indefinite" />
        </pattern>

        <!-- Diagonal grid pattern (far layer 2) -->
        <pattern id="diag-grid-far-2" width="60" height="7.5" patternUnits="userSpaceOnUse" viewBox="0 0 60 7.5">
            <line x1="-12" y1="0" x2="22" y2="7.5" stroke="#FF00FF" stroke-width="0.4" opacity="0.4"/>
            <line x1="17" y1="0" x2="47" y2="7.5" stroke="#FF00FF" stroke-width="0.4" opacity="0.4"/>
            <line x1="42" y1="0" x2="72" y2="7.5" stroke="#FF00FF" stroke-width="0.4" opacity="0.4"/>
            <line x1="22" y1="0" x2="-12" y2="7.5" stroke="#FF00FF" stroke-width="0.4" opacity="0.4"/>
            <line x1="47" y1="0" x2="17" y2="7.5" stroke="#FF00FF" stroke-width="0.4" opacity="0.4"/>
            <line x1="72" y1="0" x2="42" y2="7.5" stroke="#FF00FF" stroke-width="0.4" opacity="0.4"/>
            <!-- Animation to move the grid horizontally -->
            <animateTransform attributeName="patternTransform" type="translate" values="0 0; -60 0" dur="4.5s" repeatCount="indefinite" />
        </pattern>

        <!-- Diagonal grid pattern (near layer 1) -->
        <pattern id="diag-grid-near-1" width="60" height="7.5" patternUnits="userSpaceOnUse" viewBox="0 0 60 7.5">
            <line x1="-14" y1="0" x2="24" y2="7.5" stroke="#FF00FF" stroke-width="0.6" opacity="0.55"/>
            <line x1="19" y1="0" x2="49" y2="7.5" stroke="#FF00FF" stroke-width="0.6" opacity="0.55"/>
            <line x1="44" y1="0" x2="74" y2="7.5" stroke="#FF00FF" stroke-width="0.6" opacity="0.55"/>
            <line x1="24" y1="0" x2="-14" y2="7.5" stroke="#FF00FF" stroke-width="0.6" opacity="0.55"/>
            <line x1="49" y1="0" x2="19" y2="7.5" stroke="#FF00FF" stroke-width="0.6" opacity="0.55"/>
            <line x1="74" y1="0" x2="44" y2="7.5" stroke="#FF00FF" stroke-width="0.6" opacity="0.55"/>
            <!-- Animation to move the grid horizontally -->
            <animateTransform attributeName="patternTransform" type="translate" values="0 0; -60 0" dur="3s" repeatCount="indefinite" />
        </pattern>

        <!-- Diagonal grid pattern (near layer 2) -->
        <pattern id="diag-grid-near-2" width="60" height="7.5" patternUnits="userSpaceOnUse" viewBox="0 0 60 7.5">
            <line x1="-16" y1="0" x2="26" y2="7.5" stroke="#FF00FF" stroke-width="0.8" opacity="0.7"/>
            <line x1="21" y1="0" x2="51" y2="7.5" stroke="#FF00FF" stroke-width="0.8" opacity="0.7"/>
            <line x1="46" y1="0" x2="76" y2="7.5" stroke="#FF00FF" stroke-width="0.8" opacity="0.7"/>
            <line x1="26" y1="0" x2="-16" y2="7.5" stroke="#FF00FF" stroke-width="0.8" opacity="0.7"/>
            <line x1="51" y1="0" x2="21" y2="7.5" stroke="#FF00FF" stroke-width="0.8" opacity="0.7"/>
            <line x1="76" y1="0" x2="46" y2="7.5" stroke="#FF00FF" stroke-width="0.8" opacity="0.7"/>
            <!-- Animation to move the grid horizontally -->
            <animateTransform attributeName="patternTransform" type="translate" values="0 0; -60 0" dur="1.8s" repeatCount="indefinite" />
        </pattern>
    </defs>

    <!-- Background rectangle with gradient -->
    <rect width="100%" height="100%" fill="url(#synthwave-divider-bg-perspective)" />

    <!-- Grid layers -->
    <rect x="0" y="0"   width="100%" height="7.5" fill="url(#diag-grid-far-1)" />
    <rect x="0" y="7.5" width="100%" height="7.5" fill="url(#diag-grid-far-2)" />
    <rect x="0" y="15"  width="100%" height="7.5" fill="url(#diag-grid-near-1)" />
    <rect x="0" y="22.5"  width="100%" height="7.5" fill="url(#diag-grid-near-2)" />

    <!-- Horizontal lines with varying opacity and stroke width -->
    <g id="horizontal-lines" stroke="#FF00FF" >
        <line x1="0" y1="0.5"  x2="100%" y2="0.5"   stroke-width="0.2" opacity="0.15"/>
        <line x1="0" y1="2"    x2="100%" y2="2"     stroke-width="0.3" opacity="0.2"/>
        <line x1="0" y1="4"    x2="100%" y2="4"     stroke-width="0.4" opacity="0.25"/>
        <line x1="0" y1="6.5"  x2="100%" y2="6.5"   stroke-width="0.5" opacity="0.3"/>
        <line x1="0" y1="8.5"  x2="100%" y2="8.5"   stroke-width="0.6" opacity="0.35"/>
        <line x1="0" y1="11"   x2="100%" y2="11"    stroke-width="0.7" opacity="0.4"/>
        <line x1="0" y1="13"   x2="100%" y2="13"    stroke-width="0.8" opacity="0.45"/>
        <line x1="0" y1="15.5" x2="100%" y2="15.5"  stroke-width="0.9" opacity="0.5"/>
        <line x1="0" y1="17.5" x2="100%" y2="17.5"  stroke-width="1.0" opacity="0.55"/>
        <line x1="0" y1="20"   x2="100%" y2="20"    stroke-width="1.1" opacity="0.6"/>
        <line x1="0" y1="22"   x2="100%" y2="22"    stroke-width="1.2" opacity="0.65"/>
        <line x1="0" y1="24.5" x2="100%" y2="24.5"  stroke-width="1.3" opacity="0.7"/>
        <line x1="0" y1="26.5" x2="100%" y2="26.5"  stroke-width="1.4" opacity="0.75"/>
        <line x1="0" y1="29"   x2="100%" y2="29"    stroke-width="1.5" opacity="0.8"/>
    </g>

    <!-- Animated horizontal line -->
    <line x1="0" y1="0.5" x2="100%" y2="0.5" stroke="#BF00FF" stroke-width="1.2">
        <animate attributeName="stroke-opacity" values="1;0.6;1;0.6;1" dur="2.5s" repeatCount="indefinite"/>
        <animate attributeName="stroke-width" values="1.2; 1.8; 1.2" dur="3.8s" repeatCount="indefinite"/>
    </line>
</svg>